<svg preserveAspectRatio="none" overflow="visible" style="display: block;" width="22" height="22" viewBox="0 0 22 22" fill="none" xmlns="http://www.w3.org/2000/svg">
<g id="Icon">
<path id="Vector" d="M14.6667 14.6667H17.4167V10.0833L14.6667 6.41667H2.75V14.6667H5.5" stroke="white" stroke-width="2.2" stroke-linecap="round" stroke-linejoin="round"/>
<path id="Vector_2" d="M6.875 17.875C7.88752 17.875 8.70833 17.0542 8.70833 16.0417C8.70833 15.0291 7.88752 14.2083 6.875 14.2083C5.86248 14.2083 5.04167 15.0291 5.04167 16.0417C5.04167 17.0542 5.86248 17.875 6.875 17.875Z" stroke="white" stroke-width="2.2" stroke-linecap="round" stroke-linejoin="round"/>
<path id="Vector_3" d="M16.0417 17.875C17.0542 17.875 17.875 17.0542 17.875 16.0417C17.875 15.0291 17.0542 14.2083 16.0417 14.2083C15.0291 14.2083 14.2083 15.0291 14.2083 16.0417C14.2083 17.0542 15.0291 17.875 16.0417 17.875Z" stroke="white" stroke-width="2.2" stroke-linecap="round" stroke-linejoin="round"/>
</g>
</svg>
